<svg xmlns="http://www.w3.org/2000/svg" width="512" height="512" viewBox="0 0 512 512"><path d="M256 50C142.229 50 50 142.229 50 256s92.229 206 206 206 206-92.229 206-206S369.771 50 256 50zm103.599 170.506c3.021 67.199-47.096 142.124-135.802 142.124-26.981 0-52.096-7.911-73.238-21.466 25.347 2.987 50.646-4.044 70.734-19.786-20.907-.386-38.554-14.198-44.632-33.181a47.859 47.859 0 0 0 21.575-.816c-22.976-4.617-38.839-25.317-38.321-47.453a47.567 47.567 0 0 0 21.642 5.977c-21.278-14.221-27.303-42.318-14.785-63.789 23.563 28.906 58.77 47.928 98.478 49.92-6.969-29.886 15.702-58.667 46.542-58.667 13.742 0 26.16 5.802 34.874 15.088a95.686 95.686 0 0 0 30.341-11.594c-3.567 11.157-11.144 20.521-21.008 26.433a95.413 95.413 0 0 0 27.441-7.523 97.038 97.038 0 0 1-23.841 24.733z"/></svg>