<svg xmlns="http://www.w3.org/2000/svg" width="512" height="512" viewBox="0 0 512 512"><path d="M273.961 276.658a453.57 453.57 0 0 1 23.666 86.439c-12.814 4.947-26.675 7.77-41.21 7.77-26.58 0-51.013-9.156-70.496-24.371 22.816-35.783 51.942-59.072 88.04-69.838zm-69.371-123.03c-29.497 14.993-51.626 42.312-59.648 75.167 38.856-.266 72.475-4.526 100.63-12.814-11.885-21.361-25.553-42.164-40.982-62.353zm121.845 11.518c-19.407-14.993-43.653-24.014-70.018-24.014-9.736 0-19.145 1.35-28.177 3.644 15.19 20.415 28.649 41.442 40.425 63.007 24.546-10.395 43.815-24.637 57.77-42.637zm-61.683 89.159a468.727 468.727 0 0 0-7.757-16.59c-32.233 10.125-70.703 15.258-115.295 15.32-.026.993-.151 1.964-.151 2.964 0 27.889 10.011 53.479 26.604 73.397 25.169-37.759 57.443-62.851 96.599-75.091zm33.176 17.254c9.729 26.003 17.168 52.661 22.246 79.92 26.08-17.476 44.516-45.361 49.581-77.643-26.17-4.546-50.098-5.344-71.827-2.277zM462.417 256c0 113.771-92.229 206-206 206s-206-92.229-206-206 92.229-206 206-206 206 92.229 206 206zm-66.95 0c0-76.796-62.255-139.05-139.05-139.05-76.796 0-139.05 62.254-139.05 139.05 0 76.793 62.254 139.05 139.05 139.05 76.795 0 139.05-62.257 139.05-139.05zm-115.695-26.792c3.126 6.438 6.058 12.939 8.886 19.468 25.021-4.31 52.463-4.048 82.299.847-1.444-25.685-11.262-49.139-26.898-67.609-16.022 19.967-37.53 35.71-64.287 47.294z"/></svg>