<svg xmlns="http://www.w3.org/2000/svg" width="512" height="512" viewBox="0 0 512 512"><path d="M235.591 281.921c0 9.365-3.334 15.7-10.005 19.005-3.677 1.792-8.817 2.686-15.418 2.686h-36.964v-40.593h37.474c6.536.071 11.604.931 15.216 2.583 6.463 2.96 9.697 8.4 9.697 16.319zm-9.283-47.875c4.123-2.513 6.186-6.972 6.186-13.375 0-7.094-2.726-11.776-8.178-14.048-4.703-1.584-10.699-2.376-17.992-2.376h-33.119v33.57h37.004c6.609 0 11.977-1.257 16.099-3.771zM462.417 256c0 113.771-92.229 206-206 206s-206-92.229-206-206 92.229-206 206-206 206 92.229 206 206zm-165.322-54.071h66.154v-15.376h-66.154v15.376zm-29.379 82.161c0-8.744-1.977-16.182-5.932-22.31-3.954-6.128-9.818-10.605-17.588-13.428 5.116-2.617 8.984-5.508 11.614-8.676 4.699-5.646 7.051-13.118 7.051-22.414 0-9.021-2.33-16.767-6.989-23.24-7.74-10.536-20.893-15.941-39.457-16.217h-73.578v152.25h68.602c7.734 0 14.906-.688 21.514-2.066 6.606-1.376 12.34-3.924 17.202-7.643 4.313-3.236 7.907-7.229 10.782-11.981 4.518-7.163 6.779-15.255 6.779-24.275zm119.275-24.41c-1.367-8.829-4.357-16.586-8.967-23.274-5.116-7.587-11.604-13.138-19.457-16.656-7.852-3.518-16.682-5.277-26.477-5.277-16.5 0-29.923 5.206-40.261 15.611-10.342 10.407-15.511 25.363-15.511 44.864 0 20.817 5.727 35.84 17.182 45.076 11.453 9.234 24.672 13.853 39.655 13.853 18.152 0 32.272-5.475 42.358-16.424 6.482-6.888 10.119-13.67 10.912-20.345H356.37c-1.754 3.302-3.773 5.886-6.059 7.743-4.191 3.444-9.641 5.164-16.346 5.164-6.326 0-11.733-1.41-16.229-4.236-7.393-4.544-11.317-12.461-11.773-23.756h81.998c.146-9.722-.175-17.169-.97-22.343zm-37.429-14.863c-4.694-4.047-10.514-6.071-17.463-6.071-7.555 0-13.408 2.147-17.57 6.434-4.161 4.289-6.772 10.096-7.841 17.428h50.716c-.538-7.817-3.151-13.745-7.842-17.791z"/></svg>